<?xml version="1.0" standalone="no"?>
<!DOCTYPE svg PUBLIC "-//W3C//DTD SVG 20010904//EN"
 "http://www.w3.org/TR/2001/REC-SVG-20010904/DTD/svg10.dtd">
<svg version="1.0" xmlns="http://www.w3.org/2000/svg"
 width="600.000000pt" height="600.000000pt" viewBox="0 0 600.000000 600.000000"
 preserveAspectRatio="xMidYMid meet">
<metadata>
Created by potrace 1.14, written by Peter Selinger 2001-2017
</metadata>
<g transform="translate(0.000000,600.000000) scale(0.100000,-0.100000)"
fill="#000000" stroke="none">
<path d="M3140 5738 c0 -5 -4 -7 -9 -4 -5 3 -17 -7 -27 -22 -10 -15 -24 -33
-31 -40 -7 -8 -26 -30 -41 -50 -15 -21 -33 -43 -40 -51 -7 -8 -20 -24 -29 -37
-16 -25 -22 -25 -226 -9 -62 5 -84 3 -102 -9 -34 -23 -25 -55 45 -159 33 -49
60 -93 60 -98 0 -5 4 -9 9 -9 27 0 19 -48 -28 -169 -28 -71 -51 -138 -51 -148
0 -11 11 -25 24 -33 23 -12 44 -11 110 6 25 6 26 4 21 -18 -6 -24 17 -60 43
-66 6 -1 63 11 126 26 l113 28 57 -48 c32 -26 63 -49 69 -49 7 -1 22 -3 34 -4
12 -1 39 -19 59 -39 20 -20 40 -34 44 -31 5 3 10 0 12 -7 2 -6 11 -9 19 -6 8
3 18 6 23 6 18 1 27 33 33 115 3 45 7 93 8 107 2 14 3 41 4 61 1 29 7 38 34
52 17 10 46 26 62 37 17 11 39 24 51 29 30 14 119 71 110 71 -5 0 -4 6 1 13 5
6 6 23 2 37 -4 14 -7 21 -8 16 -1 -6 -7 -3 -13 6 -7 8 -37 24 -65 34 -29 10
-66 30 -81 44 -16 14 -49 34 -74 43 l-45 17 -22 103 c-12 56 -24 111 -26 123
-3 11 -13 30 -23 41 -14 17 -22 19 -36 11 -14 -8 -17 -7 -12 1 15 24 -6 9 -43
-30 l-38 -41 -18 66 c-10 36 -24 71 -32 78 -18 14 -53 18 -53 6z m9 -200 c9
-37 8 -47 -8 -68 -19 -27 -48 -35 -87 -26 -24 6 -24 7 23 71 27 35 51 64 54
65 4 0 12 -19 18 -42z m-364 -129 c11 -17 -1 -21 -15 -4 -8 9 -8 15 -2 15 6 0
14 -5 17 -11z m124 -215 c26 -43 26 -57 -2 -114 -18 -37 -29 -46 -64 -56 -38
-11 -41 -11 -36 4 3 9 9 22 13 27 4 6 11 21 15 35 4 14 13 39 20 55 7 17 16
42 19 58 4 15 8 27 10 27 2 0 13 -16 25 -36z"/>
<path d="M1828 4691 c-15 -14 -103 -306 -313 -1031 -30 -102 -67 -228 -82
-280 l-28 -95 -230 -76 c-127 -42 -432 -143 -680 -224 -247 -82 -453 -153
-457 -159 -4 -6 -8 -7 -8 -2 0 6 -6 1 -14 -9 -34 -47 -19 -61 375 -325 78 -52
147 -101 154 -107 8 -7 17 -13 22 -14 4 0 28 -16 53 -34 25 -19 59 -42 75 -51
17 -9 32 -20 35 -23 5 -6 33 -25 305 -210 66 -45 133 -92 149 -105 l30 -23 2
-414 c1 -228 3 -555 4 -726 1 -311 1 -313 23 -325 28 -16 38 -16 62 -5 22 11
106 77 117 92 4 6 8 -49 8 -122 0 -144 4 -165 27 -156 12 5 14 3 8 -7 -17 -28
85 17 115 51 3 3 28 21 55 39 28 19 55 38 60 43 11 9 295 213 370 265 28 19
52 38 55 41 3 3 34 26 70 50 36 25 77 54 91 65 14 12 35 27 45 34 10 7 87 61
169 121 83 59 160 113 172 119 16 9 33 6 84 -13 35 -13 161 -58 279 -100 118
-42 269 -96 335 -120 66 -24 161 -57 210 -75 50 -17 108 -38 130 -47 93 -35
321 -114 342 -118 13 -2 23 1 23 6 0 5 7 9 15 9 26 0 18 56 -29 200 -24 74
-76 236 -116 360 -39 124 -75 236 -80 250 -5 14 -41 126 -80 250 -40 124 -80
252 -91 284 -10 33 -19 65 -19 71 0 7 19 37 43 67 23 31 53 70 67 88 14 18 30
38 35 44 6 6 37 47 70 90 33 43 64 84 70 90 5 6 23 29 40 51 16 22 35 46 42
53 7 7 13 17 13 20 0 4 10 18 23 32 12 14 45 54 72 90 28 36 52 67 55 70 3 3
32 41 65 85 33 44 65 85 70 91 6 6 37 47 70 90 33 43 65 84 70 90 24 27 63 79
62 84 0 3 5 15 12 28 8 15 8 22 1 22 -6 0 -9 4 -6 9 17 26 -29 33 -236 36
-238 3 -227 3 -213 13 12 8 122 160 142 195 9 17 9 23 0 29 -9 6 -8 8 3 8 11
0 9 6 -7 22 -18 18 -34 22 -80 21 -87 0 -557 -14 -643 -18 -41 -2 -187 -7
-325 -10 -137 -4 -252 -7 -255 -7 -28 -2 -43 10 -75 59 -21 31 -42 61 -47 67
-5 6 -50 72 -100 146 -232 343 -342 505 -348 510 -4 3 -9 10 -11 15 -2 6 -26
43 -54 83 -51 73 -70 88 -103 78 -18 -6 -23 -13 -55 -86 -13 -31 -16 -33 -23
-16 -6 16 -102 150 -147 206 -7 9 -25 34 -41 58 -16 23 -33 43 -37 43 -19 3
-24 5 -34 10 -5 4 -18 -1 -27 -10z m92 -208 c19 -27 65 -89 103 -140 l68 -92
-191 -580 -191 -580 -82 -25 c-85 -26 -385 -113 -591 -172 -65 -18 -132 -38
-150 -44 -17 -6 -87 -26 -156 -45 -69 -20 -136 -39 -150 -44 -14 -5 -77 -24
-140 -41 -63 -18 -118 -36 -121 -41 -3 -5 -38 12 -78 37 -50 32 -69 49 -59 54
13 8 121 44 523 176 110 36 207 68 215 71 8 3 20 7 25 9 6 1 128 41 272 89
243 80 266 90 278 125 1 3 4 12 8 20 3 8 17 56 31 105 14 50 32 110 40 135 8
25 38 126 66 225 29 99 65 223 80 275 27 88 110 374 141 483 7 26 16 47 19 47
4 0 22 -21 40 -47z m2170 -1029 c0 -8 -109 -156 -125 -169 -10 -8 -303 -10
-861 -5 -38 0 -42 3 -87 67 -25 38 -43 71 -39 75 4 3 108 9 232 12 418 11 635
18 637 19 5 5 243 6 243 1z m-2663 -1679 l43 -30 -5 -150 c-2 -82 -7 -238 -10
-345 -4 -107 -8 -247 -10 -310 -3 -63 -4 -147 -5 -186 l0 -72 -55 -41 c-30
-22 -56 -41 -59 -41 -2 0 -5 150 -6 333 -1 372 -2 885 -1 905 1 8 12 5 34 -10
17 -13 51 -37 74 -53z"/>
<path d="M5277 2722 c-29 -25 -59 -52 -68 -61 -9 -9 -42 -38 -74 -66 -32 -27
-74 -64 -92 -82 -19 -17 -40 -30 -46 -28 -27 9 -345 84 -377 89 -42 7 -73 -12
-72 -46 0 -13 37 -105 81 -206 45 -101 81 -186 81 -189 0 -4 -25 -48 -56 -98
-179 -285 -168 -263 -153 -303 5 -13 13 -20 19 -17 5 3 10 2 10 -3 0 -8 100
-7 141 2 12 2 15 -2 12 -15 -3 -11 -9 -19 -14 -19 -19 0 14 -60 37 -66 22 -6
175 0 306 11 39 4 49 1 61 -18 9 -12 27 -35 42 -52 14 -16 47 -54 72 -82 25
-29 50 -50 54 -47 5 3 9 1 9 -5 0 -10 25 -9 36 2 4 3 27 -20 52 -53 26 -33 52
-60 58 -60 7 0 14 -5 16 -11 2 -7 12 -7 30 2 32 14 37 27 94 259 25 104 43
162 50 169 5 4 93 38 197 76 103 37 187 72 187 77 0 5 4 7 9 3 5 -3 11 3 13
12 9 42 -5 60 -88 113 -47 29 -91 62 -99 73 -12 17 -78 61 -147 96 -16 8 -28
21 -29 30 -1 9 -2 30 -4 46 -2 17 -6 101 -9 188 -3 86 -8 162 -11 167 -4 6
-19 17 -34 25 -30 15 -32 14 -119 -63 -33 -29 -40 -18 -43 68 -3 72 -16 123
-30 114 -5 -3 -9 -1 -9 5 0 22 -44 4 -93 -37z m38 -226 c0 -35 -5 -42 -56 -82
-49 -39 -59 -43 -85 -35 -16 5 -41 12 -56 15 -44 10 -40 17 43 88 24 20 67 57
94 82 l50 46 5 -38 c3 -20 5 -54 5 -76z m-568 -75 c3 -14 15 -44 26 -66 11
-22 19 -41 18 -43 -1 -1 6 -18 14 -38 8 -20 15 -39 15 -41 0 -3 7 -21 16 -41
9 -21 20 -46 24 -57 4 -11 15 -39 25 -61 17 -41 17 -42 -9 -80 -14 -22 -44
-67 -66 -100 -43 -65 -57 -74 -129 -74 -43 0 -43 0 -28 23 9 12 48 74 88 137
54 86 72 124 72 150 0 30 -44 142 -109 274 -21 42 -18 54 11 48 17 -3 27 -13
32 -31z"/>
</g>
</svg>
